<svg id="Capa_1" enable-background="new 0 0 481.467 481.467" height="512" viewBox="0 0 481.467 481.467" width="512" xmlns="http://www.w3.org/2000/svg"><g><path d="m35.524 416.689h-32.118c-1.881 0-3.406-1.525-3.406-3.406v-26.941c0-1.881 1.525-3.406 3.406-3.406s3.406 1.525 3.406 3.406v23.535h28.712c1.881 0 3.406 1.525 3.406 3.406s-1.525 3.406-3.406 3.406z" fill="#323c6b"/><path d="m54.529 416.689h-2.827c-1.881 0-3.406-1.525-3.406-3.406s1.525-3.406 3.406-3.406h2.827c1.881 0 3.406 1.525 3.406 3.406s-1.524 3.406-3.406 3.406z" fill="#323c6b"/><path d="m23.842 211.037h61.375v181.81h-61.375z" fill="#b1dcc1"/><path d="m85.217 396.253h-61.375c-1.881 0-3.406-1.525-3.406-3.406v-181.81c0-1.881 1.525-3.406 3.406-3.406h61.375c1.881 0 3.406 1.525 3.406 3.406v181.81c0 1.881-1.525 3.406-3.406 3.406zm-57.969-6.812h54.564v-174.998h-54.564z" fill="#323c6b"/><path d="m71.593 211.037h13.624v181.81h-13.624z" fill="#9dceb2"/><path d="m136.511 171.868h61.375v220.979h-61.375z" fill="#fed19a"/><path d="m197.887 396.253h-61.375c-1.881 0-3.406-1.525-3.406-3.406v-220.979c0-1.881 1.525-3.406 3.406-3.406h61.375c1.881 0 3.406 1.525 3.406 3.406v220.979c0 1.881-1.525 3.406-3.406 3.406zm-57.97-6.812h54.564v-214.167h-54.564z" fill="#323c6b"/><path d="m184.263 171.868h13.624v220.979h-13.624z" fill="#f4bb87"/><path d="m249.18 91.488h61.375v77.384h-61.375z" fill="#ef5261"/><path d="m310.556 172.277h-61.376c-1.881 0-3.406-1.525-3.406-3.406v-77.383c0-1.881 1.525-3.406 3.406-3.406h61.375c1.881 0 3.406 1.525 3.406 3.406v77.384c.001 1.88-1.524 3.405-3.405 3.405zm-57.97-6.812h54.564v-70.571h-54.564z" fill="#323c6b"/><path d="m296.932 91.488h13.624v77.384h-13.624z" fill="#e42542"/><path d="m310.556 172.277h-61.376c-1.881 0-3.406-1.525-3.406-3.406v-77.383c0-1.881 1.525-3.406 3.406-3.406h61.375c1.881 0 3.406 1.525 3.406 3.406v77.384c.001 1.88-1.524 3.405-3.405 3.405zm-57.97-6.812h54.564v-70.571h-54.564z" fill="#323c6b"/><path d="m197.887 396.253h-61.375c-1.881 0-3.406-1.525-3.406-3.406v-220.979c0-1.881 1.525-3.406 3.406-3.406h61.375c1.881 0 3.406 1.525 3.406 3.406v220.979c0 1.881-1.525 3.406-3.406 3.406zm-57.97-6.812h54.564v-214.167h-54.564z" fill="#323c6b"/><path d="m85.217 396.253h-61.375c-1.881 0-3.406-1.525-3.406-3.406v-181.81c0-1.881 1.525-3.406 3.406-3.406h61.375c1.881 0 3.406 1.525 3.406 3.406v181.81c0 1.881-1.525 3.406-3.406 3.406zm-57.969-6.812h54.564v-174.998h-54.564z" fill="#323c6b"/><circle cx="54.529" cy="157.488" fill="#fed19a" r="22.214"/><path d="m54.529 183.108c-14.149 0-25.62-11.47-25.62-25.62s11.47-25.62 25.62-25.62 25.62 11.47 25.62 25.62c-.015 14.144-11.476 25.605-25.62 25.62zm0-44.421c-10.387 0-18.808 8.421-18.808 18.808s8.421 18.808 18.808 18.808 18.808-8.421 18.808-18.808c-.008-10.385-8.423-18.803-18.808-18.815z" fill="#323c6b"/><path d="m54.529 135.275c-2.318.029-4.617.425-6.812 1.172 11.619 3.684 18.052 16.089 14.369 27.709-2.169 6.841-7.528 12.2-14.369 14.369 11.644 3.78 24.147-2.595 27.927-14.239s-2.595-24.147-14.239-27.927c-2.22-.722-4.541-1.088-6.876-1.084z" fill="#f4bb87"/><circle cx="167.199" cy="118.054" fill="#b6d2dd" r="22.214"/><path d="m167.206 143.674c-14.149 0-25.62-11.47-25.62-25.62s11.47-25.62 25.62-25.62c14.149 0 25.62 11.47 25.62 25.62-.016 14.143-11.477 25.605-25.62 25.62zm0-44.421c-10.387 0-18.808 8.421-18.808 18.808s8.421 18.808 18.808 18.808 18.808-8.421 18.808-18.808c-.008-10.385-8.423-18.803-18.808-18.815z" fill="#323c6b"/><path d="m167.199 95.847c-2.318.029-4.617.425-6.812 1.172 11.619 3.684 18.052 16.089 14.369 27.709-2.169 6.841-7.528 12.2-14.369 14.369 11.644 3.78 24.147-2.595 27.927-14.239s-2.595-24.147-14.239-27.927c-2.221-.722-4.541-1.087-6.876-1.084z" fill="#acc6cc"/><circle cx="279.882" cy="31.345" fill="#b1dcc1" r="22.214"/><path d="m279.882 56.958c-14.149 0-25.62-11.47-25.62-25.62s11.47-25.62 25.62-25.62c14.149 0 25.62 11.47 25.62 25.62-.016 14.143-11.477 25.605-25.62 25.62zm0-44.421c-10.387 0-18.808 8.421-18.808 18.808s8.421 18.808 18.808 18.808 18.808-8.421 18.808-18.808c-.012-10.382-8.426-18.796-18.808-18.808z" fill="#323c6b"/><path d="m279.882 9.131c-2.318.029-4.617.425-6.812 1.172 11.619 3.684 18.052 16.089 14.369 27.709-2.169 6.841-7.528 12.2-14.369 14.369 11.644 3.78 24.147-2.595 27.927-14.239s-2.595-24.147-14.239-27.927c-2.221-.721-4.541-1.087-6.876-1.084z" fill="#9dceb2"/><g fill="#323c6b"><path d="m185.829 109.348c-1.881 0-3.406-1.525-3.406-3.406 0-1.014.452-1.975 1.233-2.622l75.422-62.513c1.439-1.211 3.588-1.026 4.799.414 1.211 1.439 1.026 3.588-.414 4.799-.013.011-.026.022-.039.032l-75.428 62.534c-.612.497-1.378.767-2.167.762z"/><path d="m75.272 153.033c-1.881 0-3.406-1.525-3.406-3.406 0-1.479.955-2.789 2.363-3.242l71.416-23.031c1.791-.577 3.711.406 4.288 2.197s-.406 3.711-2.197 4.288l-71.423 23.024c-.336.11-.687.167-1.041.17z"/><path d="m279.882 56.958c-14.149 0-25.62-11.47-25.62-25.62s11.47-25.62 25.62-25.62c14.149 0 25.62 11.47 25.62 25.62-.016 14.143-11.477 25.605-25.62 25.62zm0-44.421c-10.387 0-18.808 8.421-18.808 18.808s8.421 18.808 18.808 18.808 18.808-8.421 18.808-18.808c-.012-10.382-8.426-18.796-18.808-18.808z"/><path d="m167.206 143.674c-14.149 0-25.62-11.47-25.62-25.62s11.47-25.62 25.62-25.62c14.149 0 25.62 11.47 25.62 25.62-.016 14.143-11.477 25.605-25.62 25.62zm0-44.421c-10.387 0-18.808 8.421-18.808 18.808s8.421 18.808 18.808 18.808 18.808-8.421 18.808-18.808c-.008-10.385-8.423-18.803-18.808-18.815z"/><path d="m54.529 183.108c-14.149 0-25.62-11.47-25.62-25.62s11.47-25.62 25.62-25.62 25.62 11.47 25.62 25.62c-.015 14.144-11.476 25.605-25.62 25.62zm0-44.421c-10.387 0-18.808 8.421-18.808 18.808s8.421 18.808 18.808 18.808 18.808-8.421 18.808-18.808c-.008-10.385-8.423-18.803-18.808-18.815z"/><path d="m478.061 184.607c-1.881 0-3.406-1.525-3.406-3.406-.015-16.209-13.151-29.344-29.359-29.359h-28.304c-1.881 0-3.406-1.525-3.406-3.406s1.525-3.406 3.406-3.406h28.304c19.968.023 36.149 16.204 36.171 36.171 0 1.881-1.525 3.406-3.406 3.406z"/><path d="m392.299 151.841h-3.406c-1.881 0-3.406-1.525-3.406-3.406s1.525-3.406 3.406-3.406h3.406c1.881 0 3.406 1.525 3.406 3.406s-1.525 3.406-3.406 3.406z"/></g><path d="m243.254 168.871h202.042c6.809 0 12.33 5.52 12.33 12.33v278.812c0 6.809-5.52 12.33-12.33 12.33h-202.042c-6.809 0-12.33-5.52-12.33-12.33v-278.812c0-6.81 5.521-12.33 12.33-12.33z" fill="#bbbbcd"/><path d="m445.296 475.749h-202.042c-8.687-.007-15.728-7.048-15.736-15.736v-278.812c.008-8.687 7.048-15.728 15.736-15.736h202.042c8.687.008 15.728 7.048 15.736 15.736v278.812c-.008 8.687-7.049 15.728-15.736 15.736zm-202.042-303.472c-4.927.004-8.92 3.997-8.924 8.924v278.812c.008 4.925 3.998 8.916 8.924 8.924h202.042c4.927-.004 8.92-3.997 8.924-8.924v-278.812c-.004-4.927-3.997-8.92-8.924-8.924z" fill="#323c6b"/><path d="m445.296 168.871h-13.624c6.809 0 12.33 5.52 12.33 12.33v278.812c0 6.809-5.52 12.33-12.33 12.33h13.624c6.809 0 12.33-5.52 12.33-12.33v-278.812c-.001-6.81-5.521-12.33-12.33-12.33z" fill="#9a9eaf"/><path d="m257.198 196.493h174.14v68.317h-174.14z" fill="#b6d2dd"/><path d="m431.331 268.223h-174.133c-1.881 0-3.406-1.525-3.406-3.406v-68.324c0-1.881 1.525-3.406 3.406-3.406h174.133c1.881 0 3.406 1.525 3.406 3.406v68.324c0 1.881-1.525 3.406-3.406 3.406zm-170.727-6.812h167.321v-61.512h-167.321z" fill="#323c6b"/><path d="m257.184 297.351h31.866v31.866h-31.866z" fill="#dbd8dd"/><path d="m289.051 332.623h-31.866c-1.881 0-3.406-1.525-3.406-3.406v-31.866c0-1.881 1.525-3.406 3.406-3.406h31.866c1.881 0 3.406 1.525 3.406 3.406v31.873c-.004 1.878-1.528 3.399-3.406 3.399zm-28.461-6.812h25.054v-25.054h-25.054z" fill="#323c6b"/><path d="m328.335 297.351h31.866v31.866h-31.866z" fill="#dbd8dd"/><path d="m360.201 332.623h-31.866c-1.881 0-3.406-1.525-3.406-3.406v-31.866c0-1.881 1.525-3.406 3.406-3.406h31.866c1.881 0 3.406 1.525 3.406 3.406v31.873c-.004 1.878-1.527 3.399-3.406 3.399zm-28.46-6.812h25.054v-25.054h-25.054z" fill="#323c6b"/><path d="m399.479 297.351h31.866v31.866h-31.866z" fill="#dbd8dd"/><path d="m431.352 332.623h-31.9c-1.881 0-3.406-1.525-3.406-3.406v-31.866c0-1.881 1.525-3.406 3.406-3.406h31.866c1.881 0 3.406 1.525 3.406 3.406v31.873c-.004 1.865-1.507 3.38-3.372 3.399zm-28.46-6.812h25.054v-25.054h-25.088z" fill="#323c6b"/><path d="m257.184 355.906h31.866v31.866h-31.866z" fill="#dbd8dd"/><path d="m289.051 391.185h-31.866c-1.881 0-3.406-1.525-3.406-3.406v-31.873c0-1.881 1.525-3.406 3.406-3.406h31.866c1.881 0 3.406 1.525 3.406 3.406v31.873c0 1.881-1.525 3.406-3.406 3.406zm-28.461-6.812h25.054v-25.061h-25.054z" fill="#323c6b"/><path d="m328.335 355.906h31.866v31.866h-31.866z" fill="#dbd8dd"/><path d="m360.201 391.185h-31.866c-1.881 0-3.406-1.525-3.406-3.406v-31.873c0-1.881 1.525-3.406 3.406-3.406h31.866c1.881 0 3.406 1.525 3.406 3.406v31.873c0 1.881-1.525 3.406-3.406 3.406zm-28.46-6.812h25.054v-25.061h-25.054z" fill="#323c6b"/><path d="m399.479 355.906h31.866v31.866h-31.866z" fill="#dbd8dd"/><path d="m431.352 391.185h-31.9c-1.881 0-3.406-1.525-3.406-3.406v-31.873c0-1.881 1.525-3.406 3.406-3.406h31.866c1.881 0 3.406 1.525 3.406 3.406v31.873c0 1.868-1.504 3.388-3.372 3.406zm-28.46-6.812h25.054v-25.061h-25.088z" fill="#323c6b"/><path d="m257.184 414.468h31.866v31.866h-31.866z" fill="#dbd8dd"/><path d="m289.051 449.747h-31.866c-1.881 0-3.406-1.525-3.406-3.406v-31.9c0-1.881 1.525-3.406 3.406-3.406h31.866c1.881 0 3.406 1.525 3.406 3.406v31.873c.015 1.881-1.498 3.418-3.379 3.433-.009 0-.018 0-.027 0zm-28.461-6.812h25.054v-25.088h-25.054z" fill="#323c6b"/><path d="m328.335 414.468h31.866v31.866h-31.866z" fill="#dbd8dd"/><path d="m360.201 449.747h-31.866c-1.881 0-3.406-1.525-3.406-3.406v-31.9c0-1.881 1.525-3.406 3.406-3.406h31.866c1.881 0 3.406 1.525 3.406 3.406v31.873c.015 1.881-1.498 3.418-3.379 3.433-.009 0-.018 0-.027 0zm-28.46-6.812h25.054v-25.088h-25.054z" fill="#323c6b"/><path d="m399.479 414.468h31.866v31.866h-31.866z" fill="#dbd8dd"/><path d="m431.352 449.747h-31.9c-1.881 0-3.406-1.525-3.406-3.406v-31.9c0-1.881 1.525-3.406 3.406-3.406h31.866c1.881 0 3.406 1.525 3.406 3.406v31.873c.015 1.879-1.494 3.415-3.372 3.433zm-28.46-6.812h25.054v-25.088h-25.088z" fill="#323c6b"/><path d="m445.296 475.749h-202.042c-8.687-.007-15.728-7.048-15.736-15.736v-278.812c.008-8.687 7.048-15.728 15.736-15.736h202.042c8.687.008 15.728 7.048 15.736 15.736v278.812c-.008 8.687-7.049 15.728-15.736 15.736zm-202.042-303.472c-4.927.004-8.92 3.997-8.924 8.924v278.812c.008 4.925 3.998 8.916 8.924 8.924h202.042c4.927-.004 8.92-3.997 8.924-8.924v-278.812c-.004-4.927-3.997-8.92-8.924-8.924z" fill="#323c6b"/><path d="m43.218 249.463c3.576 0 6.475 2.9 6.475 6.478v82.554c0 3.578-2.899 6.478-6.475 6.478-3.576 0-6.475-2.9-6.475-6.478v-82.554c.001-3.578 2.899-6.478 6.475-6.478z" fill="#eeefee"/><path d="m43.218 223.346c3.576 0 6.475 2.9 6.475 6.478v3.467c0 3.578-2.899 6.478-6.475 6.478-3.576 0-6.475-2.9-6.475-6.478v-3.467c.001-3.578 2.899-6.478 6.475-6.478z" fill="#eeefee"/></g></svg>