<svg height="512" viewBox="0 0 74 74" width="512" xmlns="http://www.w3.org/2000/svg"><g id="color_line" data-name="color line"><path d="m61.769 59.038a5.6 5.6 0 0 1 -5.595-5.595v-1.293a2.592 2.592 0 0 0 -2.584-2.595h-2.411v-3h2.411a5.6 5.6 0 0 1 5.584 5.595v1.293a2.6 2.6 0 0 0 2.595 2.595 2.55 2.55 0 0 0 1.831-.758 2.609 2.609 0 0 0 .764-1.836v-24.007h3v24.006a5.6 5.6 0 0 1 -5.595 5.595z" fill="#e1e6e9"/><path d="m61.769 59.538a6.1 6.1 0 0 1 -6.095-6.095v-1.293a2.092 2.092 0 0 0 -2.084-2.095h-2.411a.5.5 0 0 1 -.5-.5v-3a.5.5 0 0 1 .5-.5h2.411a6.1 6.1 0 0 1 6.084 6.095v1.293a2.1 2.1 0 0 0 2.095 2.095 2.053 2.053 0 0 0 1.475-.609 2.115 2.115 0 0 0 .62-1.485v-24.007a.5.5 0 0 1 .5-.5h3a.5.5 0 0 1 .5.5v24.006a6.1 6.1 0 0 1 -6.095 6.095zm-10.09-10.483h1.911a3.093 3.093 0 0 1 3.084 3.095v1.293a5.1 5.1 0 0 0 5.095 5.095 5.1 5.1 0 0 0 5.095-5.095v-23.506h-2v23.506a3.118 3.118 0 0 1 -.91 2.19 3.043 3.043 0 0 1 -2.185.9 3.1 3.1 0 0 1 -3.095-3.095v-1.288a5.1 5.1 0 0 0 -5.084-5.095h-1.911z" fill="#323c6b"/><path d="m11.729 8.802h40.95v54.573h-40.95z" fill="#e1e6e9"/><path d="m49.679 8.802h3v54.573h-3z" fill="#dbd8dd"/><rect fill="#9297ab" height="7.625" rx="1.534" width="51.14" x="6.635" y="63.375"/><path d="m6.635 68.125v1.341a1.534 1.534 0 0 0 1.534 1.534h48.071a1.534 1.534 0 0 0 1.534-1.534v-1.341z" fill="#84879c"/><path d="m57.77 64.906v4.564a1.53 1.53 0 0 1 -1.53 1.53h-2.97a1.539 1.539 0 0 0 1.54-1.53v-4.564a1.539 1.539 0 0 0 -1.54-1.53h2.97a1.53 1.53 0 0 1 1.53 1.53z" fill="#84879c"/><path d="m16.325 13.667h31.758v17.288h-31.758z" fill="#89c5cd"/><path d="m16.325 13.667h29.092v17.288h2.666v-17.288z" fill="#6eaaad"/><path d="m27.358 51.376c0-2.676 4.846-9.425 4.846-9.425s4.846 6.749 4.846 9.425a4.846 4.846 0 0 1 -9.692 0z" fill="#fcd462"/><path d="m37.05 51.38a4.844 4.844 0 0 1 -8.31 3.38 4.659 4.659 0 0 0 1.59.27 4.846 4.846 0 0 0 4.85-4.84c0-1.76-2.08-5.26-3.51-7.47.32-.48.53-.77.53-.77s4.85 6.75 4.85 9.43z" fill="#f7be56"/><path d="m67.365 20.92-3 3.33v-4.765a6.165 6.165 0 0 0 -2.456-4.909l-1.071-.8 1.8-2.4 1.071.8a9.178 9.178 0 0 1 3.656 7.31z" fill="#e1e6e9"/><g fill="#323c6b"><path d="m64.366 24.75a.5.5 0 0 1 -.5-.5v-4.765a5.664 5.664 0 0 0 -2.255-4.509l-1.071-.8a.5.5 0 0 1 -.1-.7l1.8-2.4a.5.5 0 0 1 .7-.1l1.071.8a9.678 9.678 0 0 1 3.856 7.709v1.435a.5.5 0 0 1 -.128.334l-3 3.33a.5.5 0 0 1 -.373.166zm-2.827-11.077.671.5a6.667 6.667 0 0 1 2.656 5.309v3.463l2-2.22v-1.24a8.676 8.676 0 0 0 -3.456-6.91l-.671-.5z"/><path d="m8.729 39.75a.5.5 0 0 1 -.5-.5v-11.25a.5.5 0 0 1 1 0v11.25a.5.5 0 0 1 -.5.5z"/><path d="m8.729 25.75a.5.5 0 0 1 -.5-.5v-1a.5.5 0 1 1 1 0v1a.5.5 0 0 1 -.5.5z"/><path d="m56.24 74.5h-1.99a.5.5 0 0 1 0-1h1.99a4 4 0 0 0 3.7-2.522.5.5 0 0 1 .926.378 5 5 0 0 1 -4.626 3.144z"/><path d="m60.774 69.208a.5.5 0 0 1 -.5-.5v-.979a.5.5 0 0 1 1 0v.979a.5.5 0 0 1 -.5.5z"/><path d="m52.679 63.875h-40.95a.5.5 0 0 1 -.5-.5v-54.575a.5.5 0 0 1 .5-.5h40.95a.5.5 0 0 1 .5.5v54.575a.5.5 0 0 1 -.5.5zm-40.45-1h39.95v-53.575h-39.95z"/><path d="m48.083 31.455h-31.758a.5.5 0 0 1 -.5-.5v-17.288a.5.5 0 0 1 .5-.5h31.758a.5.5 0 0 1 .5.5v17.288a.5.5 0 0 1 -.5.5zm-31.258-1h30.758v-16.288h-30.758z"/><path d="m32.2 56.722a5.352 5.352 0 0 1 -5.346-5.346c0-2.805 4.738-9.436 4.939-9.717a.519.519 0 0 1 .812 0c.2.281 4.94 6.911 4.94 9.717a5.352 5.352 0 0 1 -5.345 5.346zm0-13.9c-1.5 2.178-4.342 6.678-4.342 8.554a4.346 4.346 0 0 0 8.692 0c0-1.876-2.838-6.376-4.35-8.556z"/><path d="m56.24 71.5h-48.071a2.037 2.037 0 0 1 -2.035-2.034v-4.557a2.037 2.037 0 0 1 2.035-2.034h48.071a2.037 2.037 0 0 1 2.034 2.034v4.557a2.037 2.037 0 0 1 -2.034 2.034zm-48.071-7.625a1.036 1.036 0 0 0 -1.035 1.034v4.557a1.036 1.036 0 0 0 1.035 1.034h48.071a1.035 1.035 0 0 0 1.034-1.034v-4.557a1.035 1.035 0 0 0 -1.034-1.034z"/></g><path d="m27.358 66.942h-9.751a.758.758 0 0 1 0-1.515h9.751a.758.758 0 0 1 0 1.515z" fill="#fff"/><path d="m14.868 66.942h-.583a.758.758 0 0 1 0-1.515h.583a.758.758 0 1 1 0 1.515z" fill="#fff"/><rect fill="#9297ab" height="7.302" rx="1.517" width="44.892" x="9.758" y="1.5"/><path d="m54.65 3.02v4.27a1.517 1.517 0 0 1 -1.52 1.51h-2.96a1.515 1.515 0 0 0 1.51-1.51v-4.27a1.517 1.517 0 0 0 -1.51-1.52h2.96a1.519 1.519 0 0 1 1.52 1.52z" fill="#84879c"/><path d="m53.134 9.3h-41.859a2.019 2.019 0 0 1 -2.017-2.014v-4.269a2.019 2.019 0 0 1 2.017-2.017h41.859a2.019 2.019 0 0 1 2.016 2.017v4.269a2.019 2.019 0 0 1 -2.016 2.014zm-41.859-7.3a1.018 1.018 0 0 0 -1.017 1.017v4.269a1.018 1.018 0 0 0 1.017 1.014h41.859a1.018 1.018 0 0 0 1.016-1.014v-4.269a1.018 1.018 0 0 0 -1.016-1.017z" fill="#323c6b"/><path d="m65.636 20.92h1.73a0 0 0 0 1 0 0v12.258a1.169 1.169 0 0 1 -1.166 1.169h-5.026a1.9 1.9 0 0 1 -1.9-1.9v-5.163a6.364 6.364 0 0 1 6.362-6.364z" fill="#fe7058"/><path d="m66.2 34.847h-5.026a2.4 2.4 0 0 1 -2.4-2.4v-5.163a6.872 6.872 0 0 1 6.864-6.864h1.73a.5.5 0 0 1 .5.5v12.258a1.671 1.671 0 0 1 -1.668 1.669zm-.564-13.427a5.871 5.871 0 0 0 -5.864 5.864v5.161a1.4 1.4 0 0 0 1.4 1.4h5.028a.67.67 0 0 0 .669-.669v-11.756z" fill="#323c6b"/><rect fill="#fff" height="4.969" rx=".939" width="2.104" x="61.533" y="27.109"/><path d="m62.7 32.577h-.226a1.441 1.441 0 0 1 -1.439-1.439v-3.091a1.441 1.441 0 0 1 1.439-1.439h.226a1.441 1.441 0 0 1 1.439 1.439v3.091a1.441 1.441 0 0 1 -1.439 1.439zm-.226-4.969a.439.439 0 0 0 -.439.439v3.091a.439.439 0 0 0 .439.439h.226a.439.439 0 0 0 .439-.439v-3.091a.439.439 0 0 0 -.439-.439z" fill="#323c6b"/></g></svg>